<?xml version="1.0" encoding="UTF-8"?><svg id="Objects" xmlns="http://www.w3.org/2000/svg" viewBox="0 0 80.48 80.92"><defs><style>.cls-1{fill:#7e5b59;}.cls-2{fill:#fff;}</style></defs><path class="cls-1" d="M38.73.08l.6-.04c10.25-.52,20.63,3.6,28.16,10.47,7.96,7.26,12.55,17.68,12.96,28.41.41,10.71-3.54,21.21-10.82,29.06-7.44,8.03-17.03,12.45-27.95,12.88-10.15.56-20.34-3.53-27.92-10.15C5.81,63.79.81,53.51.1,43.02c-.72-10.6,2.51-20.68,9.55-28.69C17.32,5.61,27.17.82,38.73.08Z"/><path class="cls-2" d="M31.11,37.07c-.82-.46-1.58-1.03-2.28-1.66-.08-.07-.17-.15-.25-.23-.08-.08-.16-.15-.24-.23-.08-.08-.16-.16-.24-.24-.08-.08-.15-.16-.23-.24-.08-.08-.15-.16-.22-.25-.07-.08-.15-.17-.22-.25-.07-.09-.14-.17-.21-.26-.07-.09-.14-.18-.21-.26-.07-.09-.13-.18-.2-.27-.07-.09-.13-.18-.19-.27-.06-.09-.13-.18-.19-.28-.06-.09-.12-.19-.18-.28s-.12-.19-.17-.29c-.06-.1-.11-.19-.17-.29-.05-.1-.11-.2-.16-.3-.05-.1-.1-.2-.15-.3-.05-.1-.1-.2-.14-.3-.05-.1-.09-.2-.14-.31-.04-.1-.09-.21-.13-.31-.04-.1-.08-.21-.12-.31-.04-.1-.08-.21-.11-.32-.04-.11-.07-.21-.11-.32-.03-.11-.07-.21-.1-.32s-.06-.21-.09-.32c-.03-.11-.06-.22-.08-.32-.03-.11-.05-.22-.07-.33-.02-.11-.05-.22-.07-.33-.02-.11-.04-.22-.06-.33-.02-.11-.03-.22-.05-.33-.02-.11-.03-.22-.04-.33-.01-.11-.02-.22-.03-.33,0-.11-.02-.22-.03-.33-.22-3.82,1.02-7.44,3.57-10.29,1.89-2.11,4.59-3.65,7.35-4.26.88-.19,1.78-.27,2.68-.32,1.03-.05,2.13.1,3.14.31.11.02.22.05.33.08.11.03.22.06.33.09.11.03.22.06.33.09.11.03.22.07.33.1.11.04.22.07.32.11.11.04.22.08.32.12.11.04.21.08.32.13.11.04.21.09.32.13.1.05.21.09.31.14.1.05.21.1.31.15.1.05.2.1.3.16.1.05.2.11.3.17.1.06.2.11.3.17.1.06.2.12.29.18.1.06.19.12.29.19.1.06.19.13.28.19.09.07.19.13.28.2.09.07.18.14.27.21.09.07.18.14.27.21.09.07.18.15.26.22.09.07.17.15.26.23.08.08.17.15.25.23.08.08.16.16.25.24.08.08.16.16.24.25.08.08.16.17.23.25.08.08.15.17.23.26.07.09.15.17.22.26.07.09.14.18.21.27.07.09.14.18.21.27.07.09.14.18.2.28.07.09.13.19.19.28.06.1.13.19.19.29.06.1.12.19.18.29.06.1.12.19.17.29.06.1.11.2.17.3.05.1.11.2.16.3.05.1.1.2.15.31.05.1.1.21.14.31.05.1.09.21.14.31.04.1.09.21.13.32.04.11.08.21.12.32.04.11.08.21.11.32.04.11.07.22.11.32.03.11.07.22.1.33.03.11.06.22.09.33.03.11.06.22.08.33.03.11.05.22.07.33.02.11.04.22.07.33.02.11.04.22.06.34.02.11.03.22.05.34.01.11.03.23.04.34.01.11.02.23.03.34,0,.11.02.23.02.34,0,.11.01.23.02.34,0,.11,0,.23,0,.34,0,.11,0,.23,0,.34,0,.11,0,.23,0,.34,0,.11,0,.23-.02.34,0,.11-.02.23-.03.34,0,.11-.02.23-.03.34-.01.11-.03.23-.04.34-.02.11-.03.22-.05.34-.02.11-.04.22-.06.34-.02.11-.04.22-.07.33-.04.18-.08.36-.13.54-.05.18-.09.35-.15.53-.05.18-.11.35-.17.52-.06.17-.12.35-.19.52-.07.17-.14.34-.21.51-.07.17-.15.34-.23.5-.08.17-.16.33-.25.49-.09.16-.18.32-.27.48-.09.16-.19.31-.29.47-.1.15-.2.31-.31.46-.11.15-.21.3-.32.44-.11.15-.23.29-.34.43-.12.14-.24.28-.36.42-.12.14-.25.27-.38.4-.13.13-.26.26-.39.39-.13.13-.27.25-.41.37-.68.59-1.42,1.09-2.18,1.58,0,.47-.06,1.02.15,1.45.55,1.13,2.88,1.84,4,2.25-3.07,1.38-5.61,4.08-7.02,7.11-1.3,2.77-1.79,5.95-1.24,8.97.21,1.17.58,2.3.98,3.41l-14.12.02c-3.57,0-7.15.06-10.73,0-.54,0-.96-.04-1.35-.46-.21-.23-.32-.47-.37-.77-.13-.72-.04-1.69-.04-2.42,0-1.16-.03-2.32,0-3.47.15-5.5,7-9.8,11.36-12.09,1.15-.6,2.89-1.15,3.79-2.01.6-.57.59-1.26.6-2.03Z"/><path class="cls-2" d="M56.3,67.62c-3.3.1-6.65-1.18-9.08-3.4-.08-.07-.16-.15-.24-.23-.08-.08-.16-.15-.23-.23-.08-.08-.15-.16-.23-.24-.08-.08-.15-.16-.22-.24-.07-.08-.15-.17-.22-.25-.07-.08-.14-.17-.21-.25-.07-.09-.14-.17-.2-.26-.07-.09-.13-.18-.2-.26-.06-.09-.13-.18-.19-.27-.06-.09-.12-.18-.18-.27-.06-.09-.12-.18-.18-.28-.06-.09-.12-.19-.17-.28-.06-.09-.11-.19-.16-.29-.05-.1-.11-.19-.16-.29-.05-.1-.1-.2-.15-.29-.05-.1-.1-.2-.14-.3-.05-.1-.09-.2-.13-.3-.04-.1-.09-.2-.13-.3-.04-.1-.08-.2-.12-.31-.04-.1-.08-.21-.11-.31-.04-.1-.07-.21-.1-.31-.03-.1-.07-.21-.1-.32-.03-.11-.06-.21-.09-.32-.03-.11-.06-.21-.08-.32-.03-.11-.05-.21-.07-.32-.02-.11-.04-.22-.07-.32-.02-.11-.04-.22-.06-.33-.02-.11-.03-.22-.05-.33-.02-.11-.03-.22-.04-.33-.01-.11-.02-.22-.03-.33,0-.11-.02-.22-.03-.33,0-.11-.01-.22-.02-.33-.16-3.55,1.13-6.94,3.52-9.55,1.74-1.9,4.19-3.29,6.7-3.85.91-.2,1.84-.28,2.76-.32h.05c3.3-.11,6.69,1.28,9.07,3.53.08.08.16.15.24.23.08.08.16.16.23.24.08.08.15.16.23.24.08.08.15.16.22.25.07.08.15.17.22.25.07.09.14.17.21.26.07.09.14.17.2.26.07.09.13.18.2.27.06.09.13.18.19.27.06.09.12.18.18.28.06.09.12.19.18.28.06.09.11.19.17.29.06.1.11.19.16.29.05.1.1.2.16.29.05.1.1.2.15.3.05.1.1.2.14.3.05.1.09.2.13.3.04.1.09.2.13.31.04.1.08.21.12.31.04.1.07.21.11.31.04.11.07.21.1.32.03.11.06.21.09.32.03.11.06.21.09.32.03.11.05.22.08.32.02.11.05.22.07.33.02.11.04.22.06.33.02.11.04.22.05.33.02.11.03.22.05.33.01.11.03.22.04.33.01.11.02.22.03.33,0,.11.02.22.02.33,0,.11.01.22.01.33,0,.11,0,.21,0,.32,0,.11,0,.21,0,.32,0,.11,0,.21-.01.32,0,.11-.01.21-.02.32,0,.11-.02.21-.03.32-.01.11-.02.21-.03.31-.01.1-.03.21-.04.31-.02.1-.03.21-.05.31-.02.1-.04.21-.06.31-.02.1-.04.21-.07.31-.02.1-.05.21-.07.31-.03.1-.05.2-.08.31-.03.1-.06.2-.09.3-.03.1-.06.2-.1.3s-.07.2-.1.3c-.04.1-.07.2-.11.3-.04.1-.08.2-.12.29-.04.1-.08.19-.12.29-.04.1-.09.19-.13.29-.05.1-.09.19-.14.28-.05.09-.1.19-.15.28-.05.09-.1.19-.15.28-.05.09-.1.18-.16.27-.05.09-.11.18-.17.27-.06.09-.11.18-.17.27-.06.09-.12.17-.18.26-.06.09-.12.17-.19.26-.06.08-.13.17-.19.25-.06.08-.13.17-.2.25-.07.08-.13.16-.2.24-.07.08-.14.16-.21.24-.07.08-.14.16-.22.23-.08.08-.15.16-.23.24-.08.08-.16.16-.24.23-.08.08-.16.15-.24.23-.08.08-.16.15-.25.22-.08.07-.17.14-.25.22-.09.07-.17.14-.26.21-.09.07-.17.14-.26.2-.09.07-.18.13-.27.2-.09.06-.18.13-.27.19-.09.06-.18.12-.28.18s-.19.12-.28.18c-.09.06-.19.11-.29.17-.1.06-.19.11-.29.16-.1.05-.2.1-.29.16-.1.05-.2.1-.3.15-.1.05-.2.09-.3.14-.1.05-.2.09-.3.13-.1.04-.2.08-.31.13-.1.04-.21.08-.31.12-.1.04-.21.07-.31.11-.1.04-.21.07-.32.1-.11.03-.21.06-.32.09-.11.03-.21.06-.32.09-.11.03-.21.05-.32.08-.11.02-.22.05-.32.07-.11.02-.22.04-.33.06-.11.02-.22.04-.33.05-.11.02-.22.03-.33.05-.11.01-.22.03-.33.04-.11.01-.22.02-.33.03-.11,0-.22.02-.33.02-.11,0-.22.01-.33.01ZM54.44,46.82c.06,1.99.01,3.99.01,5.98-1.99.02-3.98-.04-5.96-.02l.02,3.49h5.94c-.02,1.93,0,3.87-.01,5.8.59,0,2.97.11,3.36,0,.03-.08.04-.13.03-.21,0-1.86-.03-3.74.02-5.6h6.28c0-1.15-.02-2.31,0-3.46-2.1.01-4.2,0-6.29-.03-.04-1.99-.02-3.98-.02-5.97-1.13,0-2.26-.03-3.39,0Z"/></svg>