<?xml version="1.0" encoding="UTF-8"?><svg xmlns="http://www.w3.org/2000/svg" xmlns:xlink="http://www.w3.org/1999/xlink" viewBox="0 0 113.11 92.15"><defs><style>.cls-1{fill:#030303;}.cls-1,.cls-2,.cls-3,.cls-4,.cls-5,.cls-6{stroke-width:0px;}.cls-7{isolation:isolate;}.cls-2{fill:url(#radial-gradient);opacity:.6;}.cls-2,.cls-5{mix-blend-mode:multiply;}.cls-3{fill:red;}.cls-4{fill:none;}.cls-5{fill:#ffe100;}.cls-8{clip-path:url(#clippath);}.cls-6{fill:url(#radial-gradient-2);opacity:.7;}</style><clipPath id="clippath"><path class="cls-4" d="m102.63,46.07c0,25.45-20.63,46.07-46.07,46.07S10.48,71.52,10.48,46.07,31.11,0,56.56,0s46.07,20.63,46.07,46.07Z"/></clipPath><radialGradient id="radial-gradient" cx="119.72" cy="199.7" fx="119.72" fy="199.7" r="46.07" gradientTransform="translate(256.26 -73.64) rotate(90)" gradientUnits="userSpaceOnUse"><stop offset="0" stop-color="#fff" stop-opacity="0"/><stop offset=".34" stop-color="#fbfbfa" stop-opacity=".02"/><stop offset=".52" stop-color="#efeeec" stop-opacity=".1"/><stop offset=".67" stop-color="#d9d7d3" stop-opacity=".24"/><stop offset=".79" stop-color="#bbb7af" stop-opacity=".43"/><stop offset=".9" stop-color="#958e82" stop-opacity=".68"/><stop offset=".99" stop-color="#655c4a" stop-opacity=".98"/><stop offset="1" stop-color="#635947"/></radialGradient><radialGradient id="radial-gradient-2" cx="76.72" cy="14.48" fx="76.72" fy="14.48" r="27.21" gradientTransform="translate(-35.85 2.32) scale(1.33 1.16)" gradientUnits="userSpaceOnUse"><stop offset="0" stop-color="#fff"/><stop offset="1" stop-color="#fff" stop-opacity="0"/></radialGradient></defs><g class="cls-7"><g id="Layer_1"><g class="cls-8"><rect class="cls-1" width="113.11" height="30.72"/><rect class="cls-5" y="61.43" width="113.11" height="30.72"/><rect class="cls-3" y="30.72" width="113.11" height="30.72"/></g><path class="cls-2" d="m56.56,92.15c-25.45,0-46.07-20.63-46.07-46.07S31.11,0,56.56,0s46.07,20.63,46.07,46.07-20.63,46.07-46.07,46.07Z"/><path class="cls-6" d="m92.78,31.43c0,17.36-16.22,31.43-36.22,31.43s-36.23-14.07-36.23-31.43S36.55,0,56.56,0s36.22,14.07,36.22,31.43Z"/></g></g></svg>