<?xml version="1.0" encoding="UTF-8"?><svg id="Objects" xmlns="http://www.w3.org/2000/svg" viewBox="0 0 81.36 81.36"><defs><style>.cls-1{fill:#7e5b59;stroke-width:0px;}</style></defs><path class="cls-1" d="m59.06,27.66c-.43-1.1-.94-1.88-1.76-2.7-.82-.82-1.61-1.33-2.7-1.76-.83-.32-2.07-.71-4.37-.81-2.48-.11-3.22-.14-9.5-.14s-7.02.02-9.5.14c-2.29.1-3.54.49-4.37.81-1.1.43-1.88.94-2.7,1.76-.82.82-1.33,1.61-1.76,2.7-.32.83-.71,2.07-.81,4.37-.11,2.48-.14,3.22-.14,9.5s.02,7.02.14,9.5c.1,2.29.49,3.54.81,4.37.43,1.1.94,1.88,1.76,2.7.82.82,1.61,1.33,2.7,1.76.83.32,2.07.71,4.37.81,2.48.11,3.22.14,9.5.14s7.02-.02,9.5-.14c2.29-.1,3.54-.49,4.37-.81,1.1-.43,1.88-.94,2.7-1.76.82-.82,1.33-1.61,1.76-2.7.32-.83.71-2.07.81-4.37.11-2.48.14-3.22.14-9.5s-.02-7.02-.14-9.5c-.1-2.29-.49-3.54-.81-4.37Zm-18.33,25.95c-6.67,0-12.08-5.41-12.08-12.08s5.41-12.08,12.08-12.08,12.08,5.41,12.08,12.08-5.41,12.08-12.08,12.08Zm12.55-21.81c-1.56,0-2.82-1.26-2.82-2.82s1.26-2.82,2.82-2.82,2.82,1.26,2.82,2.82-1.26,2.82-2.82,2.82Z"/><path class="cls-1" d="m40.72,33.69c-4.33,0-7.84,3.51-7.84,7.84s3.51,7.84,7.84,7.84,7.84-3.51,7.84-7.84-3.51-7.84-7.84-7.84Z"/><path class="cls-1" d="m40.68,0C18.21,0,0,18.21,0,40.68s18.21,40.68,40.68,40.68,40.68-18.21,40.68-40.68S63.15,0,40.68,0Zm23.42,51.23c-.11,2.5-.51,4.21-1.09,5.71-.6,1.55-1.41,2.86-2.71,4.17-1.31,1.31-2.62,2.11-4.17,2.71-1.5.58-3.21.98-5.71,1.09-2.51.11-3.31.14-9.7.14s-7.19-.03-9.7-.14c-2.5-.11-4.21-.51-5.71-1.09-1.55-.6-2.86-1.41-4.17-2.71s-2.11-2.62-2.71-4.17c-.58-1.5-.98-3.21-1.09-5.71-.11-2.51-.14-3.31-.14-9.7s.03-7.19.14-9.7c.11-2.5.51-4.21,1.09-5.71.6-1.55,1.41-2.86,2.71-4.17,1.31-1.31,2.62-2.11,4.17-2.71,1.5-.58,3.21-.98,5.71-1.09,2.51-.11,3.31-.14,9.7-.14s7.19.03,9.7.14c2.5.11,4.21.51,5.71,1.09,1.55.6,2.86,1.41,4.17,2.71,1.31,1.31,2.11,2.62,2.71,4.17.58,1.5.98,3.21,1.09,5.71.11,2.51.14,3.31.14,9.7s-.03,7.19-.14,9.7Z"/></svg>