<?xml version="1.0" encoding="UTF-8"?><svg id="Objects" xmlns="http://www.w3.org/2000/svg" viewBox="0 0 80.47 80.92"><defs><style>.cls-1{fill:#7e5b59;}.cls-2{fill:#fff;}</style></defs><path class="cls-1" d="M38.73.08l.6-.04c10.25-.52,20.63,3.6,28.16,10.47,7.96,7.26,12.55,17.68,12.96,28.41.41,10.71-3.54,21.21-10.82,29.06-7.44,8.03-17.03,12.45-27.95,12.88-10.15.56-20.34-3.53-27.92-10.15C5.81,63.79.81,53.51.1,43.02c-.72-10.6,2.51-20.68,9.55-28.69C17.32,5.61,27.17.82,38.73.08Z"/><path class="cls-2" d="M16.82,28.98c4.62,4.45,9.58,8.53,14.46,12.69-2.04,2.27-4.38,4.36-6.56,6.5-2.49,2.43-4.93,4.94-7.55,7.23-.76-4.41-.32-9.39-.32-13.89,0-4.15-.23-8.39-.02-12.53Z"/><path class="cls-2" d="M63.44,27.91l.17.17c.45,2.83.07,7.05.06,10.03-.02,4.63.18,9.28.06,13.9-.03,1.05-.07,2.67-.87,3.42-.11-.23-.25-.39-.4-.58l-.27.03c-2.06-1.34-4.88-4.51-6.73-6.27-2.47-2.2-4.79-4.59-7.17-6.89,4.96-4.68,10.38-8.97,15.16-13.81Z"/><path class="cls-2" d="M46.88,42.84c1.81,2.27,4.04,4.27,6.12,6.3,2.81,2.74,5.61,5.49,8.56,8.09-3.17,1.58-6.4,1.27-9.83,1.23l-18.43.03c-3.59.01-9.17.59-12.51-.38-.87-.25-1.56-.51-2.01-1.34,1.06-1.64,3.25-3.17,4.69-4.55,3.18-3.06,6.31-6.15,9.38-9.31,1.73,1.51,4.69,4.73,7.14,4.71,2.51-.02,5.17-3.15,6.9-4.78Z"/><path class="cls-2" d="M20.83,22.68c7.7-.26,15.48-.02,23.19-.03,4.82,0,10.54-.39,15.23.04.67.06,1.1.14,1.61.6.76.68,1.25,1.58,1.29,2.59-.71,1.8-10.02,9.38-11.98,11.14-2.32,1.99-7.77,8.31-10.45,8.7-.82-.34-1.52-.8-2.22-1.34-3.13-2.43-6.04-5.28-9.06-7.85-2.9-2.47-9.04-7.1-11.26-9.94.2-.44.41-.86.65-1.28.74-1.32,1.51-2.2,3-2.62Z"/></svg>