<?xml version="1.0" encoding="UTF-8"?><svg id="Objects" xmlns="http://www.w3.org/2000/svg" viewBox="0 0 80.48 80.92"><defs><style>.cls-1{fill:#7e5b59;}.cls-2{fill:#fff;}</style></defs><path class="cls-1" d="M38.73.08l.6-.04c10.25-.52,20.63,3.6,28.16,10.47,7.96,7.26,12.55,17.68,12.96,28.41.41,10.71-3.54,21.21-10.82,29.06-7.44,8.03-17.03,12.45-27.95,12.88-10.15.56-20.34-3.53-27.92-10.15C5.81,63.79.81,53.51.1,43.02c-.72-10.6,2.51-20.68,9.55-28.69C17.32,5.61,27.17.82,38.73.08Z"/><path class="cls-2" d="M38.54,12.12c4.98-.46,10.33,1.04,14.22,4.2,4.01,3.25,6.69,8.23,7.19,13.36,1.22,12.64-10.82,28.65-18.65,38.1-.4.47-.71.77-1.24,1.09-.22-.12-.28-.14-.5-.33-1.56-1.34-2.91-3.47-4.16-5.11-5.87-7.71-13.62-19.56-14.82-29.35-.64-5.19.79-10.43,4.03-14.54,3.49-4.41,8.41-6.79,13.93-7.44Z"/><path class="cls-1" d="M38.29,20.79c2.39-.26,4.62-.03,6.8,1.05,2.58,1.27,4.5,3.52,5.4,6.24.95,2.86.75,6.08-.65,8.76-1.62,3.1-4.33,4.72-7.55,5.73-2.53.34-4.84.13-7.15-1.08-2.72-1.42-4.69-3.99-5.52-6.93-.8-2.83-.45-5.7.99-8.27,1.7-3.04,4.41-4.61,7.68-5.49Z"/></svg>