<?xml version="1.0" encoding="UTF-8"?><svg id="Objects" xmlns="http://www.w3.org/2000/svg" viewBox="0 0 81.05 81.05"><defs><style>.cls-1{fill:#7e5b59;}.cls-2{fill:#fff;}</style></defs><path class="cls-1" d="M81.05,40.53C81.05,18.15,62.91,0,40.53,0S0,18.15,0,40.53s18.14,40.53,40.53,40.53,40.52-18.14,40.52-40.53Z"/><path class="cls-2" d="M13.96,40.34l38.85-16.38c1.87-.79,3.89.78,3.58,2.79l-4.72,30.6c-.37,2.43-3.15,3.64-5.18,2.26l-13.92-9.41c-1.09-.74-1.23-2.3-.27-3.21l13.21-12.67c.34-.33.32-.89-.04-1.19h0c-.27-.23-.66-.25-.96-.05l-17.5,11.77c-1.58,1.06-3.56,1.35-5.38.78l-7.52-2.36c-1.39-.44-1.48-2.37-.14-2.94Z"/></svg>