<?xml version="1.0" encoding="UTF-8"?><svg xmlns="http://www.w3.org/2000/svg" xmlns:xlink="http://www.w3.org/1999/xlink" viewBox="0 0 113.11 97.19"><defs><style>.cls-1{isolation:isolate;}.cls-2{fill:gold;}.cls-2,.cls-3,.cls-4,.cls-5,.cls-6{stroke-width:0px;}.cls-3{fill:url(#radial-gradient);mix-blend-mode:multiply;opacity:.6;}.cls-4{fill:none;}.cls-7{clip-path:url(#clippath);}.cls-5{fill:#008af1;}.cls-6{fill:url(#radial-gradient-2);opacity:.7;}</style><clipPath id="clippath"><path class="cls-4" d="m102.63,46.07c0,25.45-20.63,46.08-46.07,46.08S10.48,71.52,10.48,46.07,31.11,0,56.56,0s46.07,20.63,46.07,46.07Z"/></clipPath><radialGradient id="radial-gradient" cx="56.56" cy="46.07" fx="56.56" fy="46.07" r="46.07" gradientUnits="userSpaceOnUse"><stop offset="0" stop-color="#fff" stop-opacity="0"/><stop offset=".34" stop-color="#fbfbfa" stop-opacity=".02"/><stop offset=".52" stop-color="#efeeec" stop-opacity=".1"/><stop offset=".67" stop-color="#d9d7d3" stop-opacity=".24"/><stop offset=".79" stop-color="#bbb7af" stop-opacity=".43"/><stop offset=".9" stop-color="#958e82" stop-opacity=".68"/><stop offset=".99" stop-color="#655c4a" stop-opacity=".98"/><stop offset="1" stop-color="#635947"/></radialGradient><radialGradient id="radial-gradient-2" cx="76.56" cy="16.56" fx="76.56" fy="16.56" r="27.21" gradientTransform="translate(-35.63 2.37) scale(1.33 1.16)" gradientUnits="userSpaceOnUse"><stop offset="0" stop-color="#fff"/><stop offset="1" stop-color="#fff" stop-opacity="0"/></radialGradient></defs><g class="cls-1"><g id="Layer_1"><g class="cls-7"><rect class="cls-5" width="113.11" height="46.07"/><rect class="cls-2" y="46.07" width="113.11" height="51.11"/></g><path class="cls-3" d="m102.63,46.07c0,25.45-20.63,46.08-46.07,46.08S10.48,71.52,10.48,46.07,31.11,0,56.56,0s46.07,20.63,46.07,46.07Z"/><path class="cls-6" d="m92.78,33.89c0,17.36-16.22,31.43-36.22,31.43s-36.23-14.07-36.23-31.43S36.55,2.46,56.56,2.46s36.22,14.07,36.22,31.43Z"/></g></g></svg>