<?xml version="1.0" encoding="UTF-8"?><svg id="Objects" xmlns="http://www.w3.org/2000/svg" viewBox="0 0 81.36 81.36"><defs><style>.cls-1{fill:#7e5b59;stroke-width:0px;}</style></defs><path class="cls-1" d="m41.22,19.06c-10.07,0-18.37,7.65-19.33,17.4-.06.62-.1,1.24-.1,1.87,0,4.22,1.37,8.12,3.7,11.3l-2.42,7.16,7.46-2.38c3.07,2.02,6.74,3.19,10.69,3.19,10.71,0,19.42-8.64,19.42-19.27,0-.51-.02-1.01-.07-1.5-.78-9.93-9.16-17.77-19.36-17.77Zm11.33,27.22c-.46,1.32-2.78,2.58-3.82,2.67-1.04.1-1.04.84-6.8-1.39-5.75-2.26-9.39-8.12-9.67-8.49-.22-.28-1.45-1.91-2.02-3.89-.17-.62-.29-1.27-.29-1.91,0-2.77,1.46-4.13,1.98-4.69.52-.56,1.14-.7,1.51-.7s.76.05,1.08.05.81-.19,1.28.93c.48,1.12,1.61,3.89,1.75,4.17.14.28.24.61.04.98-.13.27-.23.47-.36.67-.06.09-.13.17-.21.27-.29.32-.59.72-.85.98-.28.28-.57.58-.25,1.15.32.56,1.47,2.4,3.15,3.88,2.16,1.92,3.99,2.51,4.55,2.79.57.28.9.24,1.23-.14.32-.37,1.42-1.63,1.8-2.2.38-.56.76-.48,1.28-.28.52.18,3.3,1.55,3.87,1.83.56.28.94.42,1.08.65.14.24.14,1.36-.34,2.67Z"/><path class="cls-1" d="m40.68,0C18.21,0,0,18.21,0,40.68s18.21,40.68,40.68,40.68,40.68-18.21,40.68-40.68S63.15,0,40.68,0Zm.54,61.26c-4.04,0-7.85-1.04-11.16-2.86l-12.79,4.07,4.16-12.3c-2.1-3.46-3.31-7.51-3.31-11.84,0-.34.01-.67.02-1.01.54-12.2,10.66-21.92,23.08-21.92s22.78,9.95,23.09,22.34c.01.19.01.39.01.58,0,12.66-10.34,22.93-23.1,22.93Z"/></svg>